<mxfile host="app.diagrams.net" modified="2023-02-13T07:11:11.517Z" agent="5.0 (Windows NT 10.0; Win64; x64) AppleWebKit/537.36 (KHTML, like Gecko) Chrome/109.0.0.0 Safari/537.36" etag="rlDaIs_qQX1ty0i-AK_Z" version="20.8.13" type="github">
  <diagram name="페이지-1" id="E3Nfmj0UPKqn4euKRgJr">
    <mxGraphModel dx="2409" dy="1189" grid="1" gridSize="10" guides="1" tooltips="1" connect="1" arrows="1" fold="1" page="1" pageScale="1" pageWidth="1169" pageHeight="827" math="0" shadow="0">
      <root>
        <mxCell id="0" />
        <mxCell id="1" style="" parent="0" />
        <mxCell id="3lqf1oaRyAjymzeeHCCF-37" value="" style="group" vertex="1" connectable="0" parent="1">
          <mxGeometry x="10" y="70" width="1140" height="654.55" as="geometry" />
        </mxCell>
        <mxCell id="SxxazjnEcDOOSWcFCbGN-16" value="" style="group" parent="3lqf1oaRyAjymzeeHCCF-37" vertex="1" connectable="0">
          <mxGeometry y="109.09166666666665" width="1047.2727272727273" height="545.4583333333333" as="geometry" />
        </mxCell>
        <mxCell id="SxxazjnEcDOOSWcFCbGN-1" value="" style="rounded=0;whiteSpace=wrap;html=1;" parent="SxxazjnEcDOOSWcFCbGN-16" vertex="1">
          <mxGeometry y="10.909166666666666" width="1047.2727272727273" height="534.5491666666666" as="geometry" />
        </mxCell>
        <mxCell id="SxxazjnEcDOOSWcFCbGN-2" value="" style="pointerEvents=1;shadow=0;dashed=0;html=1;strokeColor=none;fillColor=#4495D1;labelPosition=center;verticalLabelPosition=bottom;verticalAlign=top;align=center;outlineConnect=0;shape=mxgraph.veeam.2d.esx_esxi;" parent="SxxazjnEcDOOSWcFCbGN-16" vertex="1">
          <mxGeometry x="10.909090909090908" width="36.21818181818182" height="55.418566666666656" as="geometry" />
        </mxCell>
        <mxCell id="SxxazjnEcDOOSWcFCbGN-3" value="&lt;font style=&quot;font-size: 19px;&quot;&gt;CLT-master02&lt;/font&gt;" style="text;html=1;strokeColor=none;fillColor=none;align=center;verticalAlign=middle;whiteSpace=wrap;rounded=0;" parent="SxxazjnEcDOOSWcFCbGN-16" vertex="1">
          <mxGeometry x="54.54545454545454" y="10.909166666666666" width="138.3272727272727" height="43.2003" as="geometry" />
        </mxCell>
        <mxCell id="3lqf1oaRyAjymzeeHCCF-2" value="" style="group" vertex="1" connectable="0" parent="3lqf1oaRyAjymzeeHCCF-37">
          <mxGeometry x="261.8181818181818" y="109.09166666666665" width="534.5454545454545" height="517.0944999999999" as="geometry" />
        </mxCell>
        <mxCell id="3lqf1oaRyAjymzeeHCCF-3" value="&lt;font color=&quot;#14047a&quot; style=&quot;font-size: 18px;&quot;&gt;Isolated Network&lt;br&gt;192.168.10.1/24&lt;/font&gt;" style="ellipse;whiteSpace=wrap;html=1;fillColor=#D9F0FF;strokeColor=none;" vertex="1" parent="3lqf1oaRyAjymzeeHCCF-2">
          <mxGeometry y="211.6378333333333" width="534.5454545454545" height="305.45666666666665" as="geometry" />
        </mxCell>
        <mxCell id="3lqf1oaRyAjymzeeHCCF-4" value="&lt;font color=&quot;#7a1800&quot;&gt;NAT network&lt;br&gt;192.168.122.1/24&lt;/font&gt;" style="rounded=0;whiteSpace=wrap;html=1;fontSize=19;fontColor=#14047A;fillColor=#FFE8D1;strokeColor=none;" vertex="1" parent="3lqf1oaRyAjymzeeHCCF-2">
          <mxGeometry x="130.9090909090909" width="250.90909090909088" height="98.18249999999999" as="geometry" />
        </mxCell>
        <mxCell id="3lqf1oaRyAjymzeeHCCF-5" value="" style="endArrow=none;html=1;rounded=0;fontSize=22;fontColor=#7A1800;" edge="1" parent="3lqf1oaRyAjymzeeHCCF-37">
          <mxGeometry width="50" height="50" relative="1" as="geometry">
            <mxPoint x="331.57606212882587" y="528.0036666666666" as="sourcePoint" />
            <mxPoint x="711.4755596162626" y="528.0036666666666" as="targetPoint" />
            <Array as="points">
              <mxPoint x="523.6363636363636" y="360.00249999999994" />
            </Array>
          </mxGeometry>
        </mxCell>
        <mxCell id="3lqf1oaRyAjymzeeHCCF-6" value="" style="endArrow=none;html=1;rounded=0;fontSize=22;fontColor=#7A1800;exitX=0.534;exitY=0.99;exitDx=0;exitDy=0;exitPerimeter=0;" edge="1" parent="3lqf1oaRyAjymzeeHCCF-37">
          <mxGeometry width="50" height="50" relative="1" as="geometry">
            <mxPoint x="523.4072727272727" y="359.0206750000001" as="sourcePoint" />
            <mxPoint x="522.5454545454545" y="207.27416666666664" as="targetPoint" />
          </mxGeometry>
        </mxCell>
        <mxCell id="3lqf1oaRyAjymzeeHCCF-7" value="" style="endArrow=none;html=1;rounded=0;fontSize=22;fontColor=#7A1800;" edge="1" parent="3lqf1oaRyAjymzeeHCCF-37">
          <mxGeometry width="50" height="50" relative="1" as="geometry">
            <mxPoint x="905.4545454545454" y="240.00166666666664" as="sourcePoint" />
            <mxPoint x="643.6363636363636" y="158.18291666666664" as="targetPoint" />
            <Array as="points">
              <mxPoint x="905.4545454545454" y="158.18291666666664" />
            </Array>
          </mxGeometry>
        </mxCell>
        <mxCell id="3lqf1oaRyAjymzeeHCCF-8" value="" style="endArrow=none;html=1;rounded=0;fontSize=22;fontColor=#7A1800;exitX=0.517;exitY=-0.005;exitDx=0;exitDy=0;exitPerimeter=0;" edge="1" parent="3lqf1oaRyAjymzeeHCCF-37">
          <mxGeometry width="50" height="50" relative="1" as="geometry">
            <mxPoint x="522.4472727272725" y="108.60075416666685" as="sourcePoint" />
            <mxPoint x="522.5454545454545" y="76.36416666666666" as="targetPoint" />
          </mxGeometry>
        </mxCell>
        <mxCell id="3lqf1oaRyAjymzeeHCCF-9" value="&lt;font style=&quot;font-size: 22px;&quot;&gt;rhel8&lt;/font&gt;" style="rounded=0;whiteSpace=wrap;html=1;" vertex="1" parent="3lqf1oaRyAjymzeeHCCF-37">
          <mxGeometry x="419.99999999999994" y="261.82" width="201.8181818181818" height="98.18249999999999" as="geometry" />
        </mxCell>
        <mxCell id="3lqf1oaRyAjymzeeHCCF-10" value="" style="shape=image;html=1;verticalAlign=top;verticalLabelPosition=bottom;labelBackgroundColor=#ffffff;imageAspect=0;aspect=fixed;image=https://cdn1.iconfinder.com/data/icons/Futurosoft%20Icons%200.5.2/128x128/apps/redhat.png" vertex="1" parent="3lqf1oaRyAjymzeeHCCF-37">
          <mxGeometry x="376.3636363636363" y="229.09249999999997" width="64.58181818181818" height="64.58181818181818" as="geometry" />
        </mxCell>
        <mxCell id="3lqf1oaRyAjymzeeHCCF-11" value="&lt;font style=&quot;font-size: 22px;&quot;&gt;Web&lt;/font&gt;" style="rounded=0;whiteSpace=wrap;html=1;" vertex="1" parent="3lqf1oaRyAjymzeeHCCF-37">
          <mxGeometry x="174.54545454545453" y="528.0036666666666" width="201.8181818181818" height="98.18249999999999" as="geometry" />
        </mxCell>
        <mxCell id="3lqf1oaRyAjymzeeHCCF-12" value="" style="shape=image;html=1;verticalAlign=top;verticalLabelPosition=bottom;labelBackgroundColor=#ffffff;imageAspect=0;aspect=fixed;image=https://cdn1.iconfinder.com/data/icons/Futurosoft%20Icons%200.5.2/128x128/apps/redhat.png" vertex="1" parent="3lqf1oaRyAjymzeeHCCF-37">
          <mxGeometry x="130.9090909090909" y="495.2761666666666" width="64.58181818181818" height="64.58181818181818" as="geometry" />
        </mxCell>
        <mxCell id="3lqf1oaRyAjymzeeHCCF-13" value="&lt;font style=&quot;font-size: 22px;&quot;&gt;DB&lt;/font&gt;" style="rounded=0;whiteSpace=wrap;html=1;" vertex="1" parent="3lqf1oaRyAjymzeeHCCF-37">
          <mxGeometry x="665.4545454545454" y="528.0036666666666" width="201.8181818181818" height="98.18249999999999" as="geometry" />
        </mxCell>
        <mxCell id="3lqf1oaRyAjymzeeHCCF-14" value="" style="shape=image;html=1;verticalAlign=top;verticalLabelPosition=bottom;labelBackgroundColor=#ffffff;imageAspect=0;aspect=fixed;image=https://cdn1.iconfinder.com/data/icons/Futurosoft%20Icons%200.5.2/128x128/apps/redhat.png" vertex="1" parent="3lqf1oaRyAjymzeeHCCF-37">
          <mxGeometry x="621.8181818181818" y="495.2761666666666" width="64.58181818181818" height="64.58181818181818" as="geometry" />
        </mxCell>
        <mxCell id="3lqf1oaRyAjymzeeHCCF-15" value="&lt;font style=&quot;font-size: 22px;&quot;&gt;viewer-guest&lt;/font&gt;" style="rounded=0;whiteSpace=wrap;html=1;" vertex="1" parent="3lqf1oaRyAjymzeeHCCF-37">
          <mxGeometry x="807.2727272727273" y="240.00166666666664" width="201.8181818181818" height="98.18249999999999" as="geometry" />
        </mxCell>
        <mxCell id="3lqf1oaRyAjymzeeHCCF-16" value="" style="shape=image;html=1;verticalAlign=top;verticalLabelPosition=bottom;labelBackgroundColor=#ffffff;imageAspect=0;aspect=fixed;image=https://cdn1.iconfinder.com/data/icons/Futurosoft%20Icons%200.5.2/128x128/apps/redhat.png" vertex="1" parent="3lqf1oaRyAjymzeeHCCF-37">
          <mxGeometry x="763.6363636363636" y="207.27416666666664" width="64.58181818181818" height="64.58181818181818" as="geometry" />
        </mxCell>
        <mxCell id="3lqf1oaRyAjymzeeHCCF-17" value="" style="aspect=fixed;html=1;points=[];align=center;image;fontSize=12;image=img/lib/azure2/databases/Azure_Database_MariaDB_Server.svg;fontColor=#7A1800;fillColor=#FFE8D1;" vertex="1" parent="3lqf1oaRyAjymzeeHCCF-37">
          <mxGeometry x="627.9272727272727" y="559.8584333333333" width="52.36363636363636" height="69.81818181818181" as="geometry" />
        </mxCell>
        <mxCell id="3lqf1oaRyAjymzeeHCCF-18" value="" style="dashed=0;outlineConnect=0;html=1;align=center;labelPosition=center;verticalLabelPosition=bottom;verticalAlign=top;shape=mxgraph.webicons.wordpress_2;fillColor=#35E2EE;gradientColor=#0E4D99;fontSize=22;fontColor=#7A1800;" vertex="1" parent="3lqf1oaRyAjymzeeHCCF-37">
          <mxGeometry x="130.9090909090909" y="564.2221" width="61.963636363636354" height="61.96406666666665" as="geometry" />
        </mxCell>
        <mxCell id="3lqf1oaRyAjymzeeHCCF-19" value="" style="sketch=0;pointerEvents=1;shadow=0;dashed=0;html=1;strokeColor=none;labelPosition=center;verticalLabelPosition=bottom;verticalAlign=top;outlineConnect=0;align=center;shape=mxgraph.office.concepts.firewall;fillColor=#0074ce;fontSize=22;fontColor=#7A1800;" vertex="1" parent="3lqf1oaRyAjymzeeHCCF-37">
          <mxGeometry x="376.3636363636363" y="296.7293333333333" width="60.807272727272725" height="55.63674999999999" as="geometry" />
        </mxCell>
        <mxCell id="3lqf1oaRyAjymzeeHCCF-20" value="" style="points=[[0.03,0.03,0],[0.5,0,0],[0.97,0.03,0],[1,0.4,0],[0.97,0.745,0],[0.5,1,0],[0.03,0.745,0],[0,0.4,0]];verticalLabelPosition=bottom;sketch=0;html=1;verticalAlign=top;aspect=fixed;align=center;pointerEvents=1;shape=mxgraph.cisco19.workstation;fillColor=#0077d3;strokeColor=none;fontSize=22;fontColor=#7A1800;" vertex="1" parent="3lqf1oaRyAjymzeeHCCF-37">
          <mxGeometry x="760.3636363636363" y="276.22009999999995" width="69.27272727272727" height="55.418181818181814" as="geometry" />
        </mxCell>
        <mxCell id="3lqf1oaRyAjymzeeHCCF-21" value="&lt;font color=&quot;#021926&quot;&gt;Uplink&lt;/font&gt;" style="ellipse;shape=cloud;whiteSpace=wrap;html=1;fontSize=22;fontColor=#7A1800;fillColor=#FFFFFF;" vertex="1" parent="3lqf1oaRyAjymzeeHCCF-37">
          <mxGeometry x="455.45454545454544" width="130.9090909090909" height="98.18249999999999" as="geometry" />
        </mxCell>
        <mxCell id="3lqf1oaRyAjymzeeHCCF-22" value="" style="rounded=0;whiteSpace=wrap;html=1;labelBorderColor=none;strokeColor=default;strokeWidth=1;fontSize=16;fontColor=#000066;fillColor=default;" vertex="1" parent="3lqf1oaRyAjymzeeHCCF-37">
          <mxGeometry x="540" y="348.00241666666665" width="207.27272727272725" height="26.181999999999995" as="geometry" />
        </mxCell>
        <mxCell id="3lqf1oaRyAjymzeeHCCF-23" value="" style="rounded=0;whiteSpace=wrap;html=1;labelBorderColor=none;strokeColor=default;strokeWidth=1;fontSize=16;fontColor=#000066;fillColor=default;" vertex="1" parent="3lqf1oaRyAjymzeeHCCF-37">
          <mxGeometry x="540" y="250.9108333333333" width="207.27272727272725" height="26.181999999999995" as="geometry" />
        </mxCell>
        <mxCell id="3lqf1oaRyAjymzeeHCCF-24" value="" style="rounded=0;whiteSpace=wrap;html=1;labelBorderColor=none;strokeColor=default;strokeWidth=1;fontSize=16;fontColor=#000066;fillColor=default;" vertex="1" parent="3lqf1oaRyAjymzeeHCCF-37">
          <mxGeometry x="343.6363636363636" y="512.7308333333333" width="207.27272727272725" height="26.181999999999995" as="geometry" />
        </mxCell>
        <mxCell id="3lqf1oaRyAjymzeeHCCF-25" value="" style="rounded=0;whiteSpace=wrap;html=1;labelBorderColor=none;strokeColor=default;strokeWidth=1;fontSize=16;fontColor=#000066;fillColor=default;" vertex="1" parent="3lqf1oaRyAjymzeeHCCF-37">
          <mxGeometry x="725.4545454545454" y="512.7308333333333" width="207.27272727272725" height="26.181999999999995" as="geometry" />
        </mxCell>
        <mxCell id="3lqf1oaRyAjymzeeHCCF-26" value="" style="rounded=0;whiteSpace=wrap;html=1;labelBorderColor=none;strokeColor=default;strokeWidth=1;fontSize=16;fontColor=#000066;fillColor=default;" vertex="1" parent="3lqf1oaRyAjymzeeHCCF-37">
          <mxGeometry x="867.2727272727273" y="247.6380833333333" width="272.7272727272727" height="26.181999999999995" as="geometry" />
        </mxCell>
        <mxCell id="3lqf1oaRyAjymzeeHCCF-27" value="&lt;font color=&quot;#000066&quot; style=&quot;font-size: 16px;&quot;&gt;&lt;b&gt;enp7s0 : 192.168.10.254&lt;/b&gt;&lt;/font&gt;" style="text;html=1;strokeColor=none;fillColor=none;align=center;verticalAlign=middle;whiteSpace=wrap;rounded=0;fontSize=22;fontColor=#7A1800;labelBorderColor=none;" vertex="1" parent="3lqf1oaRyAjymzeeHCCF-37">
          <mxGeometry x="540" y="343.63874999999996" width="207.27272727272725" height="32.7275" as="geometry" />
        </mxCell>
        <mxCell id="3lqf1oaRyAjymzeeHCCF-28" value="&lt;font color=&quot;#000066&quot; style=&quot;font-size: 16px;&quot;&gt;&lt;b&gt;enp1s0 : 192.168.10.12&lt;/b&gt;&lt;/font&gt;" style="text;html=1;strokeColor=none;fillColor=none;align=center;verticalAlign=middle;whiteSpace=wrap;rounded=0;fontSize=22;fontColor=#7A1800;" vertex="1" parent="3lqf1oaRyAjymzeeHCCF-37">
          <mxGeometry x="343.6363636363636" y="508.3671666666666" width="207.27272727272725" height="32.7275" as="geometry" />
        </mxCell>
        <mxCell id="3lqf1oaRyAjymzeeHCCF-29" value="&lt;font color=&quot;#000066&quot; style=&quot;font-size: 16px;&quot;&gt;&lt;b&gt;enp1s0 : 192.168.10.11&lt;/b&gt;&lt;/font&gt;" style="text;html=1;strokeColor=none;fillColor=none;align=center;verticalAlign=middle;whiteSpace=wrap;rounded=0;fontSize=22;fontColor=#7A1800;" vertex="1" parent="3lqf1oaRyAjymzeeHCCF-37">
          <mxGeometry x="724.3636363636363" y="507.27624999999995" width="207.27272727272725" height="32.7275" as="geometry" />
        </mxCell>
        <mxCell id="3lqf1oaRyAjymzeeHCCF-30" value="" style="shape=waypoint;sketch=0;fillStyle=solid;size=6;pointerEvents=1;points=[];fillColor=#021926;resizable=0;rotatable=0;perimeter=centerPerimeter;snapToPoint=1;rounded=0;labelBorderColor=none;strokeColor=default;strokeWidth=2;fontSize=16;fontColor=#000066;" vertex="1" parent="3lqf1oaRyAjymzeeHCCF-37">
          <mxGeometry x="512.7272727272726" y="349.0933333333333" width="20" height="20" as="geometry" />
        </mxCell>
        <mxCell id="3lqf1oaRyAjymzeeHCCF-31" value="" style="shape=waypoint;sketch=0;fillStyle=solid;size=6;pointerEvents=1;points=[];fillColor=#021926;resizable=0;rotatable=0;perimeter=centerPerimeter;snapToPoint=1;rounded=0;labelBorderColor=none;strokeColor=default;strokeWidth=2;fontSize=16;fontColor=#000066;" vertex="1" parent="3lqf1oaRyAjymzeeHCCF-37">
          <mxGeometry x="511.6363636363636" y="250.9108333333333" width="20" height="20" as="geometry" />
        </mxCell>
        <mxCell id="3lqf1oaRyAjymzeeHCCF-32" value="" style="shape=waypoint;sketch=0;fillStyle=solid;size=6;pointerEvents=1;points=[];fillColor=none;resizable=0;rotatable=0;perimeter=centerPerimeter;snapToPoint=1;rounded=0;labelBorderColor=none;strokeColor=default;strokeWidth=2;fontSize=16;fontColor=#000066;" vertex="1" parent="3lqf1oaRyAjymzeeHCCF-37">
          <mxGeometry x="321.8181818181818" y="517.0944999999999" width="20" height="20" as="geometry" />
        </mxCell>
        <mxCell id="3lqf1oaRyAjymzeeHCCF-33" value="" style="shape=waypoint;sketch=0;fillStyle=solid;size=6;pointerEvents=1;points=[];fillColor=none;resizable=0;rotatable=0;perimeter=centerPerimeter;snapToPoint=1;rounded=0;labelBorderColor=none;strokeColor=default;strokeWidth=2;fontSize=16;fontColor=#000066;" vertex="1" parent="3lqf1oaRyAjymzeeHCCF-37">
          <mxGeometry x="700.3636363636363" y="517.0944999999999" width="20" height="20" as="geometry" />
        </mxCell>
        <mxCell id="3lqf1oaRyAjymzeeHCCF-34" value="" style="shape=waypoint;sketch=0;fillStyle=solid;size=6;pointerEvents=1;points=[];fillColor=#021926;resizable=0;rotatable=0;perimeter=centerPerimeter;snapToPoint=1;rounded=0;labelBorderColor=none;strokeColor=default;strokeWidth=2;fontSize=16;fontColor=#000066;" vertex="1" parent="3lqf1oaRyAjymzeeHCCF-37">
          <mxGeometry x="894.5454545454545" y="229.09249999999997" width="20" height="20" as="geometry" />
        </mxCell>
        <mxCell id="3lqf1oaRyAjymzeeHCCF-35" value="&lt;font color=&quot;#000066&quot; style=&quot;font-size: 16px;&quot;&gt;&lt;b&gt;enp1s0 : 192.168.122.X (dhcp)&lt;/b&gt;&lt;/font&gt;" style="text;html=1;strokeColor=none;fillColor=none;align=center;verticalAlign=middle;whiteSpace=wrap;rounded=0;fontSize=22;fontColor=#7A1800;" vertex="1" parent="3lqf1oaRyAjymzeeHCCF-37">
          <mxGeometry x="879.2727272727273" y="242.18349999999998" width="250.90909090909088" height="32.7275" as="geometry" />
        </mxCell>
        <mxCell id="3lqf1oaRyAjymzeeHCCF-36" value="&lt;font color=&quot;#000066&quot; style=&quot;font-size: 16px;&quot;&gt;&lt;b&gt;enp1s0 : 192.168.122.87&lt;/b&gt;&lt;/font&gt;" style="text;html=1;strokeColor=none;fillColor=none;align=center;verticalAlign=middle;whiteSpace=wrap;rounded=0;fontSize=22;fontColor=#7A1800;labelBorderColor=none;" vertex="1" parent="3lqf1oaRyAjymzeeHCCF-37">
          <mxGeometry x="541.090909090909" y="245.45624999999998" width="207.27272727272725" height="32.7275" as="geometry" />
        </mxCell>
      </root>
    </mxGraphModel>
  </diagram>
</mxfile>
